<?xml version="1.0" encoding="UTF-8"?>
<svg id="Layer_2" data-name="Layer 2" xmlns="http://www.w3.org/2000/svg" xmlns:xlink="http://www.w3.org/1999/xlink" viewBox="0 0 612.5 616.8">
  <defs>
    <style>
      .cls-1 {
        fill: url(#linear-gradient-2);
      }

      .cls-2 {
        fill: #fff;
      }

      .cls-3 {
        fill: url(#linear-gradient-4);
      }

      .cls-4 {
        fill: #f5615d;
      }

      .cls-5 {
        fill: url(#linear-gradient-3);
      }

      .cls-6 {
        fill: url(#linear-gradient-5);
      }

      .cls-7 {
        fill: #fa942f;
      }

      .cls-8 {
        fill: #78cc60;
      }

      .cls-9 {
        fill: #f67933;
      }

      .cls-10 {
        fill: #fbab42;
      }

      .cls-11 {
        fill: url(#linear-gradient);
      }
    </style>
    <linearGradient id="linear-gradient" x1="29.62" y1="620.39" x2="617.19" y2="-42.83" gradientUnits="userSpaceOnUse">
      <stop offset="0" stop-color="#142f84"/>
      <stop offset=".45" stop-color="#273ca2"/>
      <stop offset="1" stop-color="#8941bd"/>
    </linearGradient>
    <linearGradient id="linear-gradient-2" x1="112.41" y1="506.43" x2="507.2" y2="129.72" gradientUnits="userSpaceOnUse">
      <stop offset="0" stop-color="#122152"/>
      <stop offset=".25" stop-color="#182156"/>
      <stop offset=".6" stop-color="#2b2363"/>
      <stop offset="1" stop-color="#482777"/>
    </linearGradient>
    <linearGradient id="linear-gradient-3" x1="267.84" y1="397.75" x2="385.06" y2="99.3" gradientUnits="userSpaceOnUse">
      <stop offset=".13" stop-color="#f46f29"/>
      <stop offset=".62" stop-color="#fa942f"/>
    </linearGradient>
    <linearGradient id="linear-gradient-4" x1="246.43" y1="391.59" x2="387.66" y2="287.19" gradientUnits="userSpaceOnUse">
      <stop offset=".7" stop-color="#c6def5"/>
      <stop offset="1" stop-color="#fff"/>
    </linearGradient>
    <linearGradient id="linear-gradient-5" x1="266.88" y1="327.95" x2="397.4" y2="213.88" gradientUnits="userSpaceOnUse">
      <stop offset="0" stop-color="#c6def5"/>
      <stop offset="1" stop-color="#fff"/>
    </linearGradient>
  </defs>
  <g id="Layer_1-2" data-name="Layer 1">
    <g>
      <path class="cls-11" d="M558.82,0c-.24,0-503.05.05-503.05.05C23.97.05-.02,27.63,0,58.44l.36,503.8c.01,19.39,12.46,35.55,27.02,45.22,11.36,7.55,23.08,9.02,36.23,9.11l36.95.23,81.8-.04,55.96-.02,67.88-.09,102.83-.08,98.27-.02,44.69.22c31.24.15,60.34-23.47,60.35-56.08l.16-506.09C612.5,19.99,592.39-.05,558.82,0ZM129.06,31.04c6.53-3.39,14.63-.67,17.18,5.92,2.58,6.69-.99,15-9.32,16.49-6.55,1.16-12.35-2.66-13.96-7.86-1.73-5.61.7-11.74,6.1-14.55ZM83.05,44.6c-1.48-6.03,1.91-13.07,8.93-14.78,6.13-1.5,13.23,2.47,14.65,8.09,1.71,6.77-1.67,13.72-8.76,15.36-5.82,1.34-13.18-1.95-14.82-8.67Z"/>
      <path class="cls-8" d="M136.92,53.16c-6.55,1.16-12.35-2.66-13.96-7.86-1.73-5.61.7-11.74,6.1-14.55,6.53-3.39,14.63-.67,17.18,5.92,2.58,6.69-.99,15-9.32,16.49Z"/>
      <path class="cls-4" d="M58.99,53.16c-6.55,1.16-12.35-2.66-13.96-7.86-1.73-5.61.7-11.74,6.1-14.55,6.53-3.39,14.63-.67,17.18,5.92,2.58,6.69-.99,15-9.32,16.49Z"/>
      <path class="cls-10" d="M97.87,52.98c-5.82,1.34-13.18-1.95-14.82-8.67-1.48-6.03,1.91-13.07,8.93-14.78,6.13-1.5,13.23,2.47,14.65,8.09,1.71,6.77-1.67,13.72-8.76,15.36Z"/>
      <path class="cls-1" d="M577.08,115.12l-.14,411.89c-.01,26.54-25.74,45.77-53.36,45.64l-39.52-.17h-86.89s-90.92.08-90.92.08l-60.02.07-49.48.02-72.32.03-32.67-.19c-11.63-.07-21.99-1.27-32.04-7.41-12.87-7.87-23.88-21.03-23.89-36.81l-.32-410.02c0-25.08,21.2-47.53,49.31-47.53l449.37.24c31.01-.24,42.89,16.04,42.89,44.16Z"/>
      <g>
        <g>
          <path class="cls-7" d="M402.24,253.01l-8.08-40.15-24.9,23.09c-45.42-28.16-104.69-24.33-139.94,18.57-22.96,27.95-29.71,64.96-19.63,100.93l-49.67.17c-19.38.07-37.28-5.43-50.62-19.92-12.05-13.96-17.05-32.77-13.42-51.32,5.49-28.13,29.39-48.06,58.07-50.48-1.52-23.42,9.97-44.16,30.65-55.08,15.31-8.08,33.13-8.31,49.99-2.52,14.85-33.92,43.1-57.9,81.09-61.71,32.86-1.82,66.34,14.03,88.45,37.24,15.78,16.57,24.47,37.46,27.66,60.48,15.53-.45,34.25,2.77,47.72,10.1,8.38,4.56,16.11,9.49,22.55,16.33,27.14,28.81,28.05,75.42-2.63,102.09-14.36,11.65-31.49,15.64-49.83,15.48l-41.74-.36c5.65-18.36,6.53-36.45,3.11-54.98l-8.84-47.95Z"/>
          <g>
            <path class="cls-7" d="M231.79,390.66l-10.02-60.59,60.09,13.26-16.1,15.97c21.11,20.17,53.6,24.15,78.42,9.35,19.29-11.5,29.57-31.15,28.08-53.94l25.13,6.12c-.79,9.89-1.96,19.66-6.01,28.99-17.31,39.87-61.56,60.36-103.26,48.68-15.47-4.33-28.77-11.44-40.28-23l-16.06,15.17Z"/>
            <path class="cls-7" d="M352.43,273.8c-9.1-7.77-18.88-13.39-30.66-15.92-29.83-6.42-59.92,9.9-70.86,38.33-2.87,7.46-3.14,14.86-3.91,23.16l-25.23-5.82c1.85-19.28,8.62-37.14,21.38-51.46,33.15-37.21,90.12-37.96,126.69-4.45l15.23-14.05,10.03,59.77-59.38-13.38,16.7-16.18Z"/>
          </g>
          <path class="cls-7" d="M161.1,444.24c-1.17,9.54-1.86,23.08,10.12,23.63,4.85.22,8.16-2.21,9.25-7.28,2.38-.93,7.02-.86,9.53-.05.47,9.81-7.36,14.67-15.9,15.75-10.84,1.36-20.69-4.32-22.47-15.74-1.55-9.96-1.7-25.06,8.34-30.74,7.37-4.17,16.61-3.79,23.56.71,4.65,3.01,7.15,7.42,6.32,12.97h-9.29c-.74-5.64-4.27-7.98-9.38-7.81s-9.4,2.99-10.08,8.57Z"/>
          <path class="cls-7" d="M310.29,473.58c-6.26,4.15-16.5,4.43-20.19-3.68-3.45-7.59-3.85-24.65,6.24-28.26,4.6-1.64,9.73-.71,13.57,2.09l.56-16.44c2.02-1.72,6.47-1.53,8.89.43l.26,45.77c0,1.15-2.56,2.95-3.62,2.92-1.33-.03-3.23-1-5.72-2.83ZM309.96,451.86c-.18-1.74-3.87-3.63-5.55-3.68s-5.27,1.39-5.9,3.1c-1.96,5.33-2.04,10.62.44,15.65.96,1.95,5.19,2.54,7.04,1.85,5.83-2.16,4.67-10.42,3.97-16.92Z"/>
          <path class="cls-7" d="M261.13,531.88c-2.13,1.15-5.59.99-8.58.34l-15.51-25.95-.23,25.37c-1.53,1.52-5.2,1.48-7.75.68l-.05-38.57c2.17-.97,7.53-1.7,8.72.25l15.13,24.75.3-24.84c1.54-1.77,6.16-1.6,7.81.07l.15,37.88Z"/>
          <path class="cls-7" d="M374.96,474.45c-3.15-2.03-4.41-6.02-3.83-10.02,1.93-13.39,26.51-5.75,22.04-12.99-.57-.93-2.15-2.5-3.29-2.9-8.69-3.05-5.79,6.58-17.04,2.08-1.09-10.41,15.35-10.96,22.61-8.33,4.8,1.74,6.77,5.69,6.85,10.55l.31,20.88c-.08,1.29-3.19,3.21-4.39,2.82-1.32-.43-3.1-1.58-5.03-3.03-5.4,2.82-12.33,4.75-18.23.95ZM381.71,468.55c2.57,1.59,6.35,1.07,8.82-.33,1.68-.96,2.72-3.51,2.56-7.18-3.01-.18-6.83.05-10.09.74-2.36.5-3.75,5.25-1.29,6.78Z"/>
          <path class="cls-7" d="M460.65,466.94c1.66-.18,4.41,2.82,4.72,4.85-6.94,5.88-18.17,6.73-25.4.76-5.4-4.46-5.94-12.1-4.87-18.56,1.27-7.66,6.8-12.8,14.55-13.15,5.47-.24,10.4,1.41,13.86,5.59,2.91,3.51,4.19,9.75,2.77,14.88l-21.85.44c-.76,2.51,1.38,5.93,4.1,6.71,3.89,1.11,8.21-.03,12.11-1.51ZM457.94,455.31c-.55-6.29-4.02-7.3-7.76-6.97-3.21.28-6.02,2.44-5.92,7l13.68-.03Z"/>
          <path class="cls-7" d="M222.54,517.78c-1.77,17.31-18.95,15.17-31.55,14.87l-.05-39.57,16.3-.26c4.37-.07,10.09,2.69,12.46,6.33,3.53,5.43,3.52,12.01,2.84,18.64ZM212.69,521.94c2.61-5.27,2.76-13.77.04-18.56s-8.73-3.85-13.65-3.3l-.06,25.53c4.76.7,11.13,1.46,13.67-3.67Z"/>
          <path class="cls-7" d="M281.8,442.04l-.1,32.07c-1.11,1.2-3.97,2.93-5.02,2.31l-5.08-3.01c-2.5,1.45-6.11,3.08-9.51,3.06-6.14-.03-10.83-4.4-10.9-10.72l-.23-22.94c1.95-2.14,7.16-2.19,9.07-.35l.68,23.5c.08,2.68,5.39,3.31,7.27,2.58,3.02-1.17,4.54-4.02,4.54-7.66l.03-18.41c2.24-1.76,5.83-1.76,9.23-.42Z"/>
          <path class="cls-7" d="M184.5,516.41c-.34,8.67-6.9,16.01-15.35,16.14l-16.15.25.02-39.95c11.34-.02,26.63-2.3,30.48,10.72,1.07,3.63,1.19,7.95,1,12.84ZM174.35,522.34c3-5.31,3.04-14.55-.26-19.34-2.83-4.1-9.28-3.45-13.11-2.78l.07,25.53c4.37.41,10.66,1.27,13.29-3.41Z"/>
          <path class="cls-7" d="M242.13,470.72c-5.79,8.04-19.32,7.91-25.11.32-5.18-6.79-5.33-17.83-.21-24.69,5.88-7.88,19.52-7.55,25.3.31,4.86,6.62,5.12,16.98.03,24.06ZM234.41,450.56c-2.05-3.52-8.6-3.17-10.25.49-2.08,4.61-2.11,9.98-.33,14.87.82,2.26,4.48,3.44,6.59,3.15,6.55-.92,7.36-12.72,3.99-18.5Z"/>
          <path class="cls-7" d="M326.02,506.34c-1.03,6.86-1.43,19.12,7.33,20.06,4.56.49,7.89-1.12,9.11-6.33l8.08.25c-.16,8.32-6.51,12.13-13.67,12.98-6.7.8-14.44-1.32-17.06-8.34-2.93-7.85-3.56-18.88,1.1-26.37,5.3-8.53,18.5-8.31,25.44-2.53,3.1,2.59,3.96,5.48,4.13,9.37l-8.06.14c-1.07-5.12-4.02-6.55-8.05-6.46s-7.63,2.44-8.35,7.23Z"/>
          <path class="cls-7" d="M289.91,532.24c-10.1,3.04-23.45-.73-22.54-10.46,1.69-.59,5.18-.8,7.5-.85,1.28,4.93,4.49,6.22,9.4,6.07,1.75-.05,4.51-1.48,5.22-3.09.68-1.52-.98-4.97-2.68-5.62l-11.76-4.5c-5.4-2.06-8.15-6.9-7.09-12.39.91-4.73,5.5-7.86,11.03-8.62,7.52-1.04,16.39.83,18.55,9.29.38,1.48-3.49,2.72-4.91,2.42-1.82-.38-3.53-1.79-4.98-3.54-2.42-2.93-7.66-2.71-10.47-.05-2.12,2-.43,5.62,2.07,6.57,8.19,3.14,19.65,5.83,18.7,15.48-.43,4.39-3.15,7.81-8.03,9.28Z"/>
          <path class="cls-7" d="M340.77,448.52l-.3,25.25c-.04,3.15-8.54,3.61-8.64.52l-.81-26c-2.94-.23-5.15-.31-6.19-.76s-.61-3.69-.27-4.77c.87-2.78,7.17.71,6.8-4.73-.31-4.48.98-8.83,4.72-10.78,4.93-2.57,10.36-2.15,15.48-.28l-2.74,6.49c-2.66-.46-4.9-.49-6.46.32-1.94,1.02-2.58,6.77-.65,7.04l6.75.95c1.26.57.52,5.1-.23,6.07l-7.47.68Z"/>
          <path class="cls-7" d="M403.39,527c1.27-.45,3.71-2.17,4.42-1.5l3.82,3.61c-5.02,5.23-16.78,6.66-23.29.58-4.87-4.54-5.19-16.35.14-21.81,3.2-3.28,7.73-4.35,12.39-3.98,8.32.66,12.55,8.67,10.63,16.68l-19.27.33c.85,6.28,5.96,7.96,11.16,6.09ZM404.35,515.86c-.37-5.41-3.37-6.95-7.06-6.53-2.43.28-4.34,3.08-4.76,6.49l11.83.04Z"/>
          <path class="cls-7" d="M436.32,532.05c-.87-12.56,1.48-22.95-5.99-22.74-3.31.09-5.48,2.75-5.54,6.26l-.27,16.11c-.04,2.41-7.13,2.29-7.13-.07l-.02-26.21c2.23-4.17,6.08.95,8.19.39,2.46-.65,7.17-2.58,10.27-2.01,9.73,1.78,7.45,16.14,7.2,27.72-.04,2.03-6.57,2.56-6.71.54Z"/>
          <path class="cls-7" d="M206.91,470.42c.03,2.96-1.64,5.24-3.53,5.81-1.54.47-5.73-.53-5.72-2.62l.04-46.19c1.42-2.19,8.01-1.83,8.73.7l.48,42.31Z"/>
          <path class="cls-7" d="M364.41,472.4c.02,2.01-2.81,3.81-4.2,4.05s-5.16-1.09-5.16-2.71l.07-45.8c.3-2.57,8.03-2.65,8.87-.39l.43,44.85Z"/>
          <path class="cls-7" d="M419.88,452.93l-.52,20.58c-.04,1.49-3.01,3.03-4.25,2.97s-3.48-1.07-4.91-2.27l.36-31.09c1.38-3.37,8.24-2.19,9.83.79,4-2.44,8.64-3.88,12.57-2.22.96,1.93.51,6.52-1.28,7.33-3.58.43-9.16.21-11.79,3.9Z"/>
          <path class="cls-7" d="M459.45,524.71c-.05,4.86,8.74,1.2,7.11,6.45-.32,1.03-2.18,2.27-3.4,2.5-5.49,1.04-10.43-1.55-10.57-7.17l-.41-16.6-4.49-.73c-.94-.15-.62-2.62-.54-3.89.06-.93,1.88-.87,4.16-1.4.65-.87,1.13-4.59,1.5-6.66.3-1.67,5.33-1.32,6.34-.6l.63,7.18,6.36.7-.06,4.47-6.47.79-.15,14.96Z"/>
          <path class="cls-7" d="M363.83,531.13c0,1.06-2.51,2.44-3.41,2.39-1.07-.06-3.83-1.33-3.83-2.4l.03-36.93c0-2.6,6.58-2.3,6.91-.28l.3,37.22Z"/>
          <path class="cls-7" d="M378.96,530.74c0,1.31-2.53,2.77-3.59,2.77s-3.7-1.38-3.7-2.74l-.03-25.95c2.31-.96,5.17-1.03,7.2-.17l.13,26.09Z"/>
          <path class="cls-7" d="M372.43,492.57c1.62-1.1,4.89-.76,6.14.66,1.11,1.26.74,4.4-.72,6.05-1.23,1.39-4.49,1.11-5.7-.3-1.38-1.61-1.51-5.18.29-6.41Z"/>
          <path class="cls-7" d="M498.75,187.81l-5.07,13.61c2.24,5,7.9,8.17,5.75,14.46-12.59-7.48-24.39-12.99-38.43-17.13,11.44-6.77,17.24-20.11,13.54-32.64s-14.86-20.78-28.41-20.67c-7.97.07-14.73,4.06-21.24,8.73-6.85-10.02-15.01-17.85-24.76-25.23,1.9-2.55,5.29-6.99,8.26-7.17,4.2-.26,7.34,4.43,11.46,5.88,3.54-.68,9.64-3.06,13.06-4.79l4.73-13.8c6.5-.64,13.22-.57,19.87.71l3.81,12.68c2.75,2.47,9.71,5.46,13.57,5.9,3.62-1.11,7.69-5.36,11.47-5.83,4.58,2.96,11.45,6.66,13.35,11.72s-3.41,9.75-5.95,13.8l5.52,12.63c4.01,1.19,10,2,13.01,4.08,3.49,6.07,2.15,13.28.58,19.76l-14.15,3.31Z"/>
          <path class="cls-7" d="M477.92,204.81l-16.91-6.07c6.91-4.1,11.82-10.88,13.52-17.79,2.33-9.46-.8-20.55-5.85-25.37-13.01-13.5-28.53-12.91-43.77-1.41-1.55-2.51-8.35-10.52-8.35-10.52,0,0,34.44-24.5,60.5,1.57s.87,59.61.87,59.61Z"/>
        </g>
        <g>
          <path class="cls-5" d="M402.24,253.01l-8.08-40.15-24.9,23.09c-45.42-28.16-104.69-24.33-139.94,18.57-22.96,27.95-29.71,64.96-19.63,100.93l-49.67.17c-19.38.07-37.28-5.43-50.62-19.92-12.05-13.96-17.05-32.77-13.42-51.32,5.49-28.13,29.39-48.06,58.07-50.48-1.52-23.42,9.97-44.16,30.65-55.08,15.31-8.08,33.13-8.31,49.99-2.52,14.85-33.92,43.1-57.9,81.09-61.71,32.86-1.82,66.34,14.03,88.45,37.24,15.78,16.57,24.47,37.46,27.66,60.48,15.53-.45,34.25,2.77,47.72,10.1,8.38,4.56,16.11,9.49,22.55,16.33,27.14,28.81,28.05,75.42-2.63,102.09-14.36,11.65-31.49,15.64-49.83,15.48l-41.74-.36c5.65-18.36,6.53-36.45,3.11-54.98l-8.84-47.95Z"/>
          <g>
            <path class="cls-3" d="M231.79,390.66l-10.02-60.59,60.09,13.26-16.1,15.97c21.11,20.17,53.6,24.15,78.42,9.35,19.29-11.5,29.57-31.15,28.08-53.94l25.13,6.12c-.79,9.89-1.96,19.66-6.01,28.99-17.31,39.87-61.56,60.36-103.26,48.68-15.47-4.33-28.77-11.44-40.28-23l-16.06,15.17Z"/>
            <path class="cls-6" d="M352.43,273.8c-9.1-7.77-18.88-13.39-30.66-15.92-29.83-6.42-59.92,9.9-70.86,38.33-2.87,7.46-3.14,14.86-3.91,23.16l-25.23-5.82c1.85-19.28,8.62-37.14,21.38-51.46,33.15-37.21,90.12-37.96,126.69-4.45l15.23-14.05,10.03,59.77-59.38-13.38,16.7-16.18Z"/>
          </g>
          <path class="cls-2" d="M161.1,444.24c-1.17,9.54-1.86,23.08,10.12,23.63,4.85.22,8.16-2.21,9.25-7.28,2.38-.93,7.02-.86,9.53-.05.47,9.81-7.36,14.67-15.9,15.75-10.84,1.36-20.69-4.32-22.47-15.74-1.55-9.96-1.7-25.06,8.34-30.74,7.37-4.17,16.61-3.79,23.56.71,4.65,3.01,7.15,7.42,6.32,12.97h-9.29c-.74-5.64-4.27-7.98-9.38-7.81s-9.4,2.99-10.08,8.57Z"/>
          <path class="cls-2" d="M310.29,473.58c-6.26,4.15-16.5,4.43-20.19-3.68-3.45-7.59-3.85-24.65,6.24-28.26,4.6-1.64,9.73-.71,13.57,2.09l.56-16.44c2.02-1.72,6.47-1.53,8.89.43l.26,45.77c0,1.15-2.56,2.95-3.62,2.92-1.33-.03-3.23-1-5.72-2.83ZM309.96,451.86c-.18-1.74-3.87-3.63-5.55-3.68s-5.27,1.39-5.9,3.1c-1.96,5.33-2.04,10.62.44,15.65.96,1.95,5.19,2.54,7.04,1.85,5.83-2.16,4.67-10.42,3.97-16.92Z"/>
          <path class="cls-7" d="M261.13,531.88c-2.13,1.15-5.59.99-8.58.34l-15.51-25.95-.23,25.37c-1.53,1.52-5.2,1.48-7.75.68l-.05-38.57c2.17-.97,7.53-1.7,8.72.25l15.13,24.75.3-24.84c1.54-1.77,6.16-1.6,7.81.07l.15,37.88Z"/>
          <path class="cls-2" d="M374.96,474.45c-3.15-2.03-4.41-6.02-3.83-10.02,1.93-13.39,26.51-5.75,22.04-12.99-.57-.93-2.15-2.5-3.29-2.9-8.69-3.05-5.79,6.58-17.04,2.08-1.09-10.41,15.35-10.96,22.61-8.33,4.8,1.74,6.77,5.69,6.85,10.55l.31,20.88c-.08,1.29-3.19,3.21-4.39,2.82-1.32-.43-3.1-1.58-5.03-3.03-5.4,2.82-12.33,4.75-18.23.95ZM381.71,468.55c2.57,1.59,6.35,1.07,8.82-.33,1.68-.96,2.72-3.51,2.56-7.18-3.01-.18-6.83.05-10.09.74-2.36.5-3.75,5.25-1.29,6.78Z"/>
          <path class="cls-2" d="M460.65,466.94c1.66-.18,4.41,2.82,4.72,4.85-6.94,5.88-18.17,6.73-25.4.76-5.4-4.46-5.94-12.1-4.87-18.56,1.27-7.66,6.8-12.8,14.55-13.15,5.47-.24,10.4,1.41,13.86,5.59,2.91,3.51,4.19,9.75,2.77,14.88l-21.85.44c-.76,2.51,1.38,5.93,4.1,6.71,3.89,1.11,8.21-.03,12.11-1.51ZM457.94,455.31c-.55-6.29-4.02-7.3-7.76-6.97-3.21.28-6.02,2.44-5.92,7l13.68-.03Z"/>
          <path class="cls-7" d="M222.54,517.78c-1.77,17.31-18.95,15.17-31.55,14.87l-.05-39.57,16.3-.26c4.37-.07,10.09,2.69,12.46,6.33,3.53,5.43,3.52,12.01,2.84,18.64ZM212.69,521.94c2.61-5.27,2.76-13.77.04-18.56s-8.73-3.85-13.65-3.3l-.06,25.53c4.76.7,11.13,1.46,13.67-3.67Z"/>
          <path class="cls-2" d="M281.8,442.04l-.1,32.07c-1.11,1.2-3.97,2.93-5.02,2.31l-5.08-3.01c-2.5,1.45-6.11,3.08-9.51,3.06-6.14-.03-10.83-4.4-10.9-10.72l-.23-22.94c1.95-2.14,7.16-2.19,9.07-.35l.68,23.5c.08,2.68,5.39,3.31,7.27,2.58,3.02-1.17,4.54-4.02,4.54-7.66l.03-18.41c2.24-1.76,5.83-1.76,9.23-.42Z"/>
          <path class="cls-7" d="M184.5,516.41c-.34,8.67-6.9,16.01-15.35,16.14l-16.15.25.02-39.95c11.34-.02,26.63-2.3,30.48,10.72,1.07,3.63,1.19,7.95,1,12.84ZM174.35,522.34c3-5.31,3.04-14.55-.26-19.34-2.83-4.1-9.28-3.45-13.11-2.78l.07,25.53c4.37.41,10.66,1.27,13.29-3.41Z"/>
          <path class="cls-2" d="M242.13,470.72c-5.79,8.04-19.32,7.91-25.11.32-5.18-6.79-5.33-17.83-.21-24.69,5.88-7.88,19.52-7.55,25.3.31,4.86,6.62,5.12,16.98.03,24.06ZM234.41,450.56c-2.05-3.52-8.6-3.17-10.25.49-2.08,4.61-2.11,9.98-.33,14.87.82,2.26,4.48,3.44,6.59,3.15,6.55-.92,7.36-12.72,3.99-18.5Z"/>
          <path class="cls-2" d="M326.02,506.34c-1.03,6.86-1.43,19.12,7.33,20.06,4.56.49,7.89-1.12,9.11-6.33l8.08.25c-.16,8.32-6.51,12.13-13.67,12.98-6.7.8-14.44-1.32-17.06-8.34-2.93-7.85-3.56-18.88,1.1-26.37,5.3-8.53,18.5-8.31,25.44-2.53,3.1,2.59,3.96,5.48,4.13,9.37l-8.06.14c-1.07-5.12-4.02-6.55-8.05-6.46s-7.63,2.44-8.35,7.23Z"/>
          <path class="cls-7" d="M289.91,532.24c-10.1,3.04-23.45-.73-22.54-10.46,1.69-.59,5.18-.8,7.5-.85,1.28,4.93,4.49,6.22,9.4,6.07,1.75-.05,4.51-1.48,5.22-3.09.68-1.52-.98-4.97-2.68-5.62l-11.76-4.5c-5.4-2.06-8.15-6.9-7.09-12.39.91-4.73,5.5-7.86,11.03-8.62,7.52-1.04,16.39.83,18.55,9.29.38,1.48-3.49,2.72-4.91,2.42-1.82-.38-3.53-1.79-4.98-3.54-2.42-2.93-7.66-2.71-10.47-.05-2.12,2-.43,5.62,2.07,6.57,8.19,3.14,19.65,5.83,18.7,15.48-.43,4.39-3.15,7.81-8.03,9.28Z"/>
          <path class="cls-2" d="M340.77,448.52l-.3,25.25c-.04,3.15-8.54,3.61-8.64.52l-.81-26c-2.94-.23-5.15-.31-6.19-.76s-.61-3.69-.27-4.77c.87-2.78,7.17.71,6.8-4.73-.31-4.48.98-8.83,4.72-10.78,4.93-2.57,10.36-2.15,15.48-.28l-2.74,6.49c-2.66-.46-4.9-.49-6.46.32-1.94,1.02-2.58,6.77-.65,7.04l6.75.95c1.26.57.52,5.1-.23,6.07l-7.47.68Z"/>
          <path class="cls-2" d="M403.39,527c1.27-.45,3.71-2.17,4.42-1.5l3.82,3.61c-5.02,5.23-16.78,6.66-23.29.58-4.87-4.54-5.19-16.35.14-21.81,3.2-3.28,7.73-4.35,12.39-3.98,8.32.66,12.55,8.67,10.63,16.68l-19.27.33c.85,6.28,5.96,7.96,11.16,6.09ZM404.35,515.86c-.37-5.41-3.37-6.95-7.06-6.53-2.43.28-4.34,3.08-4.76,6.49l11.83.04Z"/>
          <path class="cls-2" d="M436.32,532.05c-.87-12.56,1.48-22.95-5.99-22.74-3.31.09-5.48,2.75-5.54,6.26l-.27,16.11c-.04,2.41-7.13,2.29-7.13-.07l-.02-26.21c2.23-4.17,6.08.95,8.19.39,2.46-.65,7.17-2.58,10.27-2.01,9.73,1.78,7.45,16.14,7.2,27.72-.04,2.03-6.57,2.56-6.71.54Z"/>
          <path class="cls-2" d="M206.91,470.42c.03,2.96-1.64,5.24-3.53,5.81-1.54.47-5.73-.53-5.72-2.62l.04-46.19c1.42-2.19,8.01-1.83,8.73.7l.48,42.31Z"/>
          <path class="cls-2" d="M364.41,472.4c.02,2.01-2.81,3.81-4.2,4.05s-5.16-1.09-5.16-2.71l.07-45.8c.3-2.57,8.03-2.65,8.87-.39l.43,44.85Z"/>
          <path class="cls-2" d="M419.88,452.93l-.52,20.58c-.04,1.49-3.01,3.03-4.25,2.97s-3.48-1.07-4.91-2.27l.36-31.09c1.38-3.37,8.24-2.19,9.83.79,4-2.44,8.64-3.88,12.57-2.22.96,1.93.51,6.52-1.28,7.33-3.58.43-9.16.21-11.79,3.9Z"/>
          <path class="cls-2" d="M459.45,524.71c-.05,4.86,8.74,1.2,7.11,6.45-.32,1.03-2.18,2.27-3.4,2.5-5.49,1.04-10.43-1.55-10.57-7.17l-.41-16.6-4.49-.73c-.94-.15-.62-2.62-.54-3.89.06-.93,1.88-.87,4.16-1.4.65-.87,1.13-4.59,1.5-6.66.3-1.67,5.33-1.32,6.34-.6l.63,7.18,6.36.7-.06,4.47-6.47.79-.15,14.96Z"/>
          <path class="cls-2" d="M363.83,531.13c0,1.06-2.51,2.44-3.41,2.39-1.07-.06-3.83-1.33-3.83-2.4l.03-36.93c0-2.6,6.58-2.3,6.91-.28l.3,37.22Z"/>
          <path class="cls-2" d="M378.96,530.74c0,1.31-2.53,2.77-3.59,2.77s-3.7-1.38-3.7-2.74l-.03-25.95c2.31-.96,5.17-1.03,7.2-.17l.13,26.09Z"/>
          <path class="cls-2" d="M372.43,492.57c1.62-1.1,4.89-.76,6.14.66,1.11,1.26.74,4.4-.72,6.05-1.23,1.39-4.49,1.11-5.7-.3-1.38-1.61-1.51-5.18.29-6.41Z"/>
          <path class="cls-7" d="M498.75,187.81l-5.07,13.61c2.24,5,7.9,8.17,5.75,14.46-12.59-7.48-24.39-12.99-38.43-17.13,11.44-6.77,17.24-20.11,13.54-32.64s-14.86-20.78-28.41-20.67c-7.97.07-14.73,4.06-21.24,8.73-6.85-10.02-15.01-17.85-24.76-25.23,1.9-2.55,5.29-6.99,8.26-7.17,4.2-.26,7.34,4.43,11.46,5.88,3.54-.68,9.64-3.06,13.06-4.79l4.73-13.8c6.5-.64,13.22-.57,19.87.71l3.81,12.68c2.75,2.47,9.71,5.46,13.57,5.9,3.62-1.11,7.69-5.36,11.47-5.83,4.58,2.96,11.45,6.66,13.35,11.72s-3.41,9.75-5.95,13.8l5.52,12.63c4.01,1.19,10,2,13.01,4.08,3.49,6.07,2.15,13.28.58,19.76l-14.15,3.31Z"/>
          <path class="cls-9" d="M477.92,204.81l-16.91-6.07c6.91-4.1,11.82-10.88,13.52-17.79,2.33-9.46-.8-20.55-5.85-25.37-13.01-13.5-28.53-12.91-43.77-1.41-1.55-2.51-8.35-10.52-8.35-10.52,0,0,34.44-24.5,60.5,1.57s.87,59.61.87,59.61Z"/>
        </g>
      </g>
    </g>
  </g>
</svg>